<mxfile host="app.diagrams.net" modified="2024-02-22T13:07:22.739Z" agent="Mozilla/5.0 (X11; Linux x86_64; rv:109.0) Gecko/20100101 Firefox/115.0" etag="NB3ukHVAkucrZxui1x8_" version="23.0.1" type="device">
  <diagram name="Page-1" id="7MAW4Ok9PyOAf3gbM8Nc">
    <mxGraphModel dx="3088" dy="1881" grid="1" gridSize="10" guides="1" tooltips="1" connect="1" arrows="1" fold="1" page="1" pageScale="1" pageWidth="827" pageHeight="1169" math="0" shadow="0">
      <root>
        <mxCell id="0" />
        <mxCell id="1" parent="0" />
        <mxCell id="iYEEN1SFcOfQrYxXXygI-125" value="" style="whiteSpace=wrap;html=1;aspect=fixed;glass=1;rounded=0;shadow=0;fillColor=none;strokeColor=#d79b00;fontStyle=1;fontSize=14;" parent="1" vertex="1">
          <mxGeometry x="-611" y="-810" width="620" height="620" as="geometry" />
        </mxCell>
        <mxCell id="iYEEN1SFcOfQrYxXXygI-104" value="" style="whiteSpace=wrap;html=1;aspect=fixed;glass=1;rounded=0;shadow=0;fillColor=none;strokeColor=#d79b00;" parent="1" vertex="1">
          <mxGeometry x="-1314" y="-810" width="620" height="620" as="geometry" />
        </mxCell>
        <mxCell id="iYEEN1SFcOfQrYxXXygI-85" value="IForm" style="swimlane;fontStyle=1;childLayout=stackLayout;horizontal=1;startSize=26;fillColor=none;horizontalStack=0;resizeParent=1;resizeParentMax=0;resizeLast=0;collapsible=1;marginBottom=0;whiteSpace=wrap;html=1;fontSize=16;" parent="1" vertex="1">
          <mxGeometry x="-1300" y="-465" width="267" height="242" as="geometry" />
        </mxCell>
        <mxCell id="yaGknA6ZXVtnzNLj6_gG-16" value="drawForm (g : Graphics) : void" style="text;strokeColor=none;fillColor=none;align=left;verticalAlign=top;spacingLeft=4;spacingRight=4;overflow=hidden;rotatable=0;points=[[0,0.5],[1,0.5]];portConstraint=eastwest;whiteSpace=wrap;html=1;fontSize=13;fontStyle=3" vertex="1" parent="iYEEN1SFcOfQrYxXXygI-85">
          <mxGeometry y="26" width="267" height="24" as="geometry" />
        </mxCell>
        <mxCell id="yaGknA6ZXVtnzNLj6_gG-12" value="moveX(deltaX : int ) : void" style="text;strokeColor=none;fillColor=none;align=left;verticalAlign=top;spacingLeft=4;spacingRight=4;overflow=hidden;rotatable=0;points=[[0,0.5],[1,0.5]];portConstraint=eastwest;whiteSpace=wrap;html=1;fontSize=13;fontStyle=3" vertex="1" parent="iYEEN1SFcOfQrYxXXygI-85">
          <mxGeometry y="50" width="267" height="24" as="geometry" />
        </mxCell>
        <mxCell id="yaGknA6ZXVtnzNLj6_gG-15" value="moveY(deltaY : int ) : void" style="text;strokeColor=none;fillColor=none;align=left;verticalAlign=top;spacingLeft=4;spacingRight=4;overflow=hidden;rotatable=0;points=[[0,0.5],[1,0.5]];portConstraint=eastwest;whiteSpace=wrap;html=1;fontSize=13;fontStyle=3" vertex="1" parent="iYEEN1SFcOfQrYxXXygI-85">
          <mxGeometry y="74" width="267" height="24" as="geometry" />
        </mxCell>
        <mxCell id="yaGknA6ZXVtnzNLj6_gG-14" value="move(deltaX : int, deltaY : int ) : void" style="text;strokeColor=none;fillColor=none;align=left;verticalAlign=top;spacingLeft=4;spacingRight=4;overflow=hidden;rotatable=0;points=[[0,0.5],[1,0.5]];portConstraint=eastwest;whiteSpace=wrap;html=1;fontSize=13;fontStyle=3" vertex="1" parent="iYEEN1SFcOfQrYxXXygI-85">
          <mxGeometry y="98" width="267" height="24" as="geometry" />
        </mxCell>
        <mxCell id="yaGknA6ZXVtnzNLj6_gG-20" value="zoomInWidth(deltaWidth : int ) : void" style="text;strokeColor=none;fillColor=none;align=left;verticalAlign=top;spacingLeft=4;spacingRight=4;overflow=hidden;rotatable=0;points=[[0,0.5],[1,0.5]];portConstraint=eastwest;whiteSpace=wrap;html=1;fontSize=13;fontStyle=3" vertex="1" parent="iYEEN1SFcOfQrYxXXygI-85">
          <mxGeometry y="122" width="267" height="24" as="geometry" />
        </mxCell>
        <mxCell id="yaGknA6ZXVtnzNLj6_gG-22" value="zoomOutWidth(deltaWidth : int ) : void" style="text;strokeColor=none;fillColor=none;align=left;verticalAlign=top;spacingLeft=4;spacingRight=4;overflow=hidden;rotatable=0;points=[[0,0.5],[1,0.5]];portConstraint=eastwest;whiteSpace=wrap;html=1;fontSize=13;fontStyle=3" vertex="1" parent="iYEEN1SFcOfQrYxXXygI-85">
          <mxGeometry y="146" width="267" height="24" as="geometry" />
        </mxCell>
        <mxCell id="yaGknA6ZXVtnzNLj6_gG-21" value="zoomInHeight(deltaHeight : int ) : void" style="text;strokeColor=none;fillColor=none;align=left;verticalAlign=top;spacingLeft=4;spacingRight=4;overflow=hidden;rotatable=0;points=[[0,0.5],[1,0.5]];portConstraint=eastwest;whiteSpace=wrap;html=1;fontSize=13;fontStyle=3" vertex="1" parent="iYEEN1SFcOfQrYxXXygI-85">
          <mxGeometry y="170" width="267" height="24" as="geometry" />
        </mxCell>
        <mxCell id="yaGknA6ZXVtnzNLj6_gG-23" value="zoomOutHeight(deltaHeight : int ) : void" style="text;strokeColor=none;fillColor=none;align=left;verticalAlign=top;spacingLeft=4;spacingRight=4;overflow=hidden;rotatable=0;points=[[0,0.5],[1,0.5]];portConstraint=eastwest;whiteSpace=wrap;html=1;fontSize=13;fontStyle=3" vertex="1" parent="iYEEN1SFcOfQrYxXXygI-85">
          <mxGeometry y="194" width="267" height="24" as="geometry" />
        </mxCell>
        <mxCell id="yaGknA6ZXVtnzNLj6_gG-13" value="onSurface( int x, int y) : boolean" style="text;strokeColor=none;fillColor=none;align=left;verticalAlign=top;spacingLeft=4;spacingRight=4;overflow=hidden;rotatable=0;points=[[0,0.5],[1,0.5]];portConstraint=eastwest;whiteSpace=wrap;html=1;fontSize=13;fontStyle=3" vertex="1" parent="iYEEN1SFcOfQrYxXXygI-85">
          <mxGeometry y="218" width="267" height="24" as="geometry" />
        </mxCell>
        <mxCell id="iYEEN1SFcOfQrYxXXygI-89" value="RectangleModel" style="swimlane;fontStyle=1;childLayout=stackLayout;horizontal=1;startSize=26;fillColor=none;horizontalStack=0;resizeParent=1;resizeParentMax=0;resizeLast=0;collapsible=1;marginBottom=0;whiteSpace=wrap;html=1;fontSize=15;" parent="1" vertex="1">
          <mxGeometry x="-1300" y="-622" width="200" height="50" as="geometry" />
        </mxCell>
        <mxCell id="yaGknA6ZXVtnzNLj6_gG-17" value="drawForm (g : Graphics) : void" style="text;strokeColor=none;fillColor=none;align=left;verticalAlign=top;spacingLeft=4;spacingRight=4;overflow=hidden;rotatable=0;points=[[0,0.5],[1,0.5]];portConstraint=eastwest;whiteSpace=wrap;html=1;fontSize=13;fontStyle=3" vertex="1" parent="iYEEN1SFcOfQrYxXXygI-89">
          <mxGeometry y="26" width="200" height="24" as="geometry" />
        </mxCell>
        <mxCell id="iYEEN1SFcOfQrYxXXygI-93" style="edgeStyle=orthogonalEdgeStyle;rounded=0;orthogonalLoop=1;jettySize=auto;html=1;endArrow=block;endFill=0;entryX=0.363;entryY=-0.014;entryDx=0;entryDy=0;entryPerimeter=0;" parent="1" source="iYEEN1SFcOfQrYxXXygI-94" target="yaGknA6ZXVtnzNLj6_gG-1" edge="1">
          <mxGeometry relative="1" as="geometry" />
        </mxCell>
        <mxCell id="iYEEN1SFcOfQrYxXXygI-94" value="&lt;div style=&quot;font-size: 15px;&quot;&gt;FormContainer&lt;/div&gt;" style="swimlane;fontStyle=1;childLayout=stackLayout;horizontal=1;startSize=26;fillColor=none;horizontalStack=0;resizeParent=1;resizeParentMax=0;resizeLast=0;collapsible=1;marginBottom=0;whiteSpace=wrap;html=1;fontSize=15;" parent="1" vertex="1">
          <mxGeometry x="-1090" y="-801" width="164.5" height="104" as="geometry" />
        </mxCell>
        <mxCell id="iYEEN1SFcOfQrYxXXygI-95" value="ecouteur : list" style="text;strokeColor=none;fillColor=none;align=left;verticalAlign=top;spacingLeft=4;spacingRight=4;overflow=hidden;rotatable=0;points=[[0,0.5],[1,0.5]];portConstraint=eastwest;whiteSpace=wrap;html=1;fontSize=13;fontStyle=3" parent="iYEEN1SFcOfQrYxXXygI-94" vertex="1">
          <mxGeometry y="26" width="164.5" height="26" as="geometry" />
        </mxCell>
        <mxCell id="iYEEN1SFcOfQrYxXXygI-96" value="addEcouter() : void" style="text;strokeColor=none;fillColor=none;align=left;verticalAlign=top;spacingLeft=4;spacingRight=4;overflow=hidden;rotatable=0;points=[[0,0.5],[1,0.5]];portConstraint=eastwest;whiteSpace=wrap;html=1;fontSize=13;fontStyle=3" parent="iYEEN1SFcOfQrYxXXygI-94" vertex="1">
          <mxGeometry y="52" width="164.5" height="26" as="geometry" />
        </mxCell>
        <mxCell id="iYEEN1SFcOfQrYxXXygI-97" value="removeEcouter() : void" style="text;strokeColor=none;fillColor=none;align=left;verticalAlign=top;spacingLeft=4;spacingRight=4;overflow=hidden;rotatable=0;points=[[0,0.5],[1,0.5]];portConstraint=eastwest;whiteSpace=wrap;html=1;fontSize=13;fontStyle=3" parent="iYEEN1SFcOfQrYxXXygI-94" vertex="1">
          <mxGeometry y="78" width="164.5" height="26" as="geometry" />
        </mxCell>
        <mxCell id="iYEEN1SFcOfQrYxXXygI-98" value="CercleModel" style="swimlane;fontStyle=1;childLayout=stackLayout;horizontal=1;startSize=26;fillColor=none;horizontalStack=0;resizeParent=1;resizeParentMax=0;resizeLast=0;collapsible=1;marginBottom=0;whiteSpace=wrap;html=1;fontSize=15;" parent="1" vertex="1">
          <mxGeometry x="-950" y="-424" width="246" height="52" as="geometry" />
        </mxCell>
        <mxCell id="iYEEN1SFcOfQrYxXXygI-99" value="drawForm (g : Graphics) : void" style="text;strokeColor=none;fillColor=none;align=left;verticalAlign=top;spacingLeft=4;spacingRight=4;overflow=hidden;rotatable=0;points=[[0,0.5],[1,0.5]];portConstraint=eastwest;whiteSpace=wrap;html=1;fontSize=13;fontStyle=3" parent="iYEEN1SFcOfQrYxXXygI-98" vertex="1">
          <mxGeometry y="26" width="246" height="26" as="geometry" />
        </mxCell>
        <mxCell id="iYEEN1SFcOfQrYxXXygI-105" value="&lt;b&gt;&lt;font style=&quot;font-size: 19px;&quot;&gt;Model&lt;/font&gt;&lt;/b&gt;" style="text;html=1;align=center;verticalAlign=middle;whiteSpace=wrap;rounded=0;fontFamily=Helvetica;fontSize=12;fontColor=default;" parent="1" vertex="1">
          <mxGeometry x="-1314" y="-810" width="60" height="30" as="geometry" />
        </mxCell>
        <mxCell id="iYEEN1SFcOfQrYxXXygI-115" value="ViewFormContainer" style="swimlane;fontStyle=1;childLayout=stackLayout;horizontal=1;startSize=26;fillColor=none;horizontalStack=0;resizeParent=1;resizeParentMax=0;resizeLast=0;collapsible=1;marginBottom=0;whiteSpace=wrap;html=1;fontSize=15;" parent="1" vertex="1">
          <mxGeometry x="-505" y="-805" width="230" height="182" as="geometry" />
        </mxCell>
        <mxCell id="iYEEN1SFcOfQrYxXXygI-116" value="state : IViewState" style="text;strokeColor=none;fillColor=none;align=left;verticalAlign=top;spacingLeft=4;spacingRight=4;overflow=hidden;rotatable=0;points=[[0,0.5],[1,0.5]];portConstraint=eastwest;whiteSpace=wrap;html=1;fontStyle=3;fontSize=13;" parent="iYEEN1SFcOfQrYxXXygI-115" vertex="1">
          <mxGeometry y="26" width="230" height="26" as="geometry" />
        </mxCell>
        <mxCell id="iYEEN1SFcOfQrYxXXygI-117" value="formContainer : FormContainer" style="text;strokeColor=none;fillColor=none;align=left;verticalAlign=top;spacingLeft=4;spacingRight=4;overflow=hidden;rotatable=0;points=[[0,0.5],[1,0.5]];portConstraint=eastwest;whiteSpace=wrap;html=1;fontStyle=3;fontSize=13;" parent="iYEEN1SFcOfQrYxXXygI-115" vertex="1">
          <mxGeometry y="52" width="230" height="26" as="geometry" />
        </mxCell>
        <mxCell id="yaGknA6ZXVtnzNLj6_gG-26" value="setState(s : IViewState) : void" style="text;strokeColor=none;fillColor=none;align=left;verticalAlign=top;spacingLeft=4;spacingRight=4;overflow=hidden;rotatable=0;points=[[0,0.5],[1,0.5]];portConstraint=eastwest;whiteSpace=wrap;html=1;fontStyle=3;fontSize=13;" vertex="1" parent="iYEEN1SFcOfQrYxXXygI-115">
          <mxGeometry y="78" width="230" height="26" as="geometry" />
        </mxCell>
        <mxCell id="yaGknA6ZXVtnzNLj6_gG-27" value="getState() : IViewState" style="text;strokeColor=none;fillColor=none;align=left;verticalAlign=top;spacingLeft=4;spacingRight=4;overflow=hidden;rotatable=0;points=[[0,0.5],[1,0.5]];portConstraint=eastwest;whiteSpace=wrap;html=1;fontStyle=3;fontSize=13;" vertex="1" parent="iYEEN1SFcOfQrYxXXygI-115">
          <mxGeometry y="104" width="230" height="26" as="geometry" />
        </mxCell>
        <mxCell id="yaGknA6ZXVtnzNLj6_gG-29" value="addListiners() : void" style="text;strokeColor=none;fillColor=none;align=left;verticalAlign=top;spacingLeft=4;spacingRight=4;overflow=hidden;rotatable=0;points=[[0,0.5],[1,0.5]];portConstraint=eastwest;whiteSpace=wrap;html=1;fontStyle=3;fontSize=13;" vertex="1" parent="iYEEN1SFcOfQrYxXXygI-115">
          <mxGeometry y="130" width="230" height="26" as="geometry" />
        </mxCell>
        <mxCell id="yaGknA6ZXVtnzNLj6_gG-30" value="removeListiners() : void" style="text;strokeColor=none;fillColor=none;align=left;verticalAlign=top;spacingLeft=4;spacingRight=4;overflow=hidden;rotatable=0;points=[[0,0.5],[1,0.5]];portConstraint=eastwest;whiteSpace=wrap;html=1;fontStyle=3;fontSize=13;" vertex="1" parent="iYEEN1SFcOfQrYxXXygI-115">
          <mxGeometry y="156" width="230" height="26" as="geometry" />
        </mxCell>
        <mxCell id="iYEEN1SFcOfQrYxXXygI-126" value="&lt;b style=&quot;font-size: 18px;&quot;&gt;View&lt;br&gt;&lt;/b&gt;" style="text;html=1;align=center;verticalAlign=middle;whiteSpace=wrap;rounded=0;fontFamily=Helvetica;fontSize=12;fontColor=default;" parent="1" vertex="1">
          <mxGeometry x="-51" y="-810" width="60" height="30" as="geometry" />
        </mxCell>
        <mxCell id="iYEEN1SFcOfQrYxXXygI-129" value="&lt;b&gt;&lt;font color=&quot;#ed333b&quot; style=&quot;font-size: 14px;&quot;&gt;Écoute&lt;/font&gt;&lt;/b&gt;" style="endArrow=open;endSize=12;dashed=1;html=1;rounded=0;fontFamily=Helvetica;fontSize=12;fontColor=default;fillColor=#f8cecc;strokeColor=#b85450;strokeWidth=3;exitX=0;exitY=0.269;exitDx=0;exitDy=0;exitPerimeter=0;" parent="1" source="iYEEN1SFcOfQrYxXXygI-117" target="iYEEN1SFcOfQrYxXXygI-94" edge="1">
          <mxGeometry x="-0.6612" y="-26" width="160" relative="1" as="geometry">
            <mxPoint x="-308.8599999999997" y="-742.96" as="sourcePoint" />
            <mxPoint x="-890" y="-721.9627529631753" as="targetPoint" />
            <mxPoint as="offset" />
          </mxGeometry>
        </mxCell>
        <mxCell id="iYEEN1SFcOfQrYxXXygI-130" value="&lt;b&gt;&lt;font color=&quot;#ed333b&quot; style=&quot;font-size: 14px;&quot;&gt;Écoute&lt;/font&gt;&lt;/b&gt;" style="endArrow=open;endSize=12;dashed=1;html=1;rounded=0;fontFamily=Helvetica;fontSize=12;fontColor=default;fillColor=#f8cecc;strokeColor=#b85450;strokeWidth=3;entryX=0.421;entryY=0.029;entryDx=0;entryDy=0;entryPerimeter=0;" parent="1" source="iYEEN1SFcOfQrYxXXygI-94" target="iYEEN1SFcOfQrYxXXygI-89" edge="1">
          <mxGeometry x="-0.5158" y="-22" width="160" relative="1" as="geometry">
            <mxPoint x="-1062.5" y="-756.1524390243903" as="sourcePoint" />
            <mxPoint x="-1240" y="-640" as="targetPoint" />
            <Array as="points">
              <mxPoint x="-1220" y="-750" />
            </Array>
            <mxPoint x="1" as="offset" />
          </mxGeometry>
        </mxCell>
        <mxCell id="yaGknA6ZXVtnzNLj6_gG-1" value="AbstractForm" style="swimlane;fontStyle=1;childLayout=stackLayout;horizontal=1;startSize=26;fillColor=none;horizontalStack=0;resizeParent=1;resizeParentMax=0;resizeLast=0;collapsible=1;marginBottom=0;whiteSpace=wrap;html=1;fontSize=15;" vertex="1" parent="1">
          <mxGeometry x="-1045.5" y="-622" width="265.5" height="50" as="geometry" />
        </mxCell>
        <mxCell id="yaGknA6ZXVtnzNLj6_gG-2" value="abstract drawForm (g : Graphics) : void" style="text;strokeColor=none;fillColor=none;align=left;verticalAlign=top;spacingLeft=4;spacingRight=4;overflow=hidden;rotatable=0;points=[[0,0.5],[1,0.5]];portConstraint=eastwest;whiteSpace=wrap;html=1;fontSize=13;fontStyle=3" vertex="1" parent="yaGknA6ZXVtnzNLj6_gG-1">
          <mxGeometry y="26" width="265.5" height="24" as="geometry" />
        </mxCell>
        <mxCell id="yaGknA6ZXVtnzNLj6_gG-7" value="" style="endArrow=block;dashed=1;endFill=0;endSize=12;html=1;rounded=0;hachureGap=4;fontFamily=Architects Daughter;fontSource=https%3A%2F%2Ffonts.googleapis.com%2Fcss%3Ffamily%3DArchitects%2BDaughter;fontSize=23;strokeWidth=2;entryX=0.536;entryY=-0.007;entryDx=0;entryDy=0;entryPerimeter=0;exitX=0.175;exitY=1;exitDx=0;exitDy=0;exitPerimeter=0;" edge="1" parent="1" source="yaGknA6ZXVtnzNLj6_gG-2" target="iYEEN1SFcOfQrYxXXygI-85">
          <mxGeometry width="160" relative="1" as="geometry">
            <mxPoint x="-1000" y="-560" as="sourcePoint" />
            <mxPoint x="-1076" y="-450" as="targetPoint" />
            <Array as="points">
              <mxPoint x="-1000" y="-500" />
              <mxPoint x="-1157" y="-500" />
            </Array>
          </mxGeometry>
        </mxCell>
        <mxCell id="yaGknA6ZXVtnzNLj6_gG-8" value="&lt;b&gt;&lt;font color=&quot;#ed333b&quot; style=&quot;font-size: 14px;&quot;&gt;Écoute&lt;/font&gt;&lt;/b&gt;" style="endArrow=open;endSize=12;dashed=1;html=1;rounded=0;fontFamily=Helvetica;fontSize=12;fontColor=default;fillColor=#f8cecc;strokeColor=#b85450;strokeWidth=3;entryX=0.75;entryY=0;entryDx=0;entryDy=0;" edge="1" parent="1" source="iYEEN1SFcOfQrYxXXygI-97" target="iYEEN1SFcOfQrYxXXygI-98">
          <mxGeometry x="0.5792" y="32" width="160" relative="1" as="geometry">
            <mxPoint x="-630" y="-670" as="sourcePoint" />
            <mxPoint x="-798" y="-470" as="targetPoint" />
            <Array as="points">
              <mxPoint x="-890" y="-710" />
              <mxPoint x="-760" y="-710" />
            </Array>
            <mxPoint as="offset" />
          </mxGeometry>
        </mxCell>
        <mxCell id="yaGknA6ZXVtnzNLj6_gG-10" value="" style="endArrow=block;html=1;rounded=0;hachureGap=4;fontFamily=Architects Daughter;fontSource=https%3A%2F%2Ffonts.googleapis.com%2Fcss%3Ffamily%3DArchitects%2BDaughter;fontSize=16;endFill=1;strokeWidth=2;" edge="1" parent="1" source="iYEEN1SFcOfQrYxXXygI-89" target="yaGknA6ZXVtnzNLj6_gG-1">
          <mxGeometry width="50" height="50" relative="1" as="geometry">
            <mxPoint x="-1170" y="-360" as="sourcePoint" />
            <mxPoint x="-1120" y="-410" as="targetPoint" />
          </mxGeometry>
        </mxCell>
        <mxCell id="yaGknA6ZXVtnzNLj6_gG-18" value="" style="endArrow=classic;html=1;rounded=0;hachureGap=4;fontFamily=Architects Daughter;fontSource=https%3A%2F%2Ffonts.googleapis.com%2Fcss%3Ffamily%3DArchitects%2BDaughter;fontSize=16;exitX=0.289;exitY=-0.01;exitDx=0;exitDy=0;exitPerimeter=0;entryX=0.616;entryY=1;entryDx=0;entryDy=0;entryPerimeter=0;" edge="1" parent="1" source="iYEEN1SFcOfQrYxXXygI-98" target="yaGknA6ZXVtnzNLj6_gG-2">
          <mxGeometry width="50" height="50" relative="1" as="geometry">
            <mxPoint x="-881" y="-450" as="sourcePoint" />
            <mxPoint x="-880" y="-580" as="targetPoint" />
            <Array as="points">
              <mxPoint x="-880" y="-480" />
            </Array>
          </mxGeometry>
        </mxCell>
        <mxCell id="yaGknA6ZXVtnzNLj6_gG-19" value="*" style="text;html=1;strokeColor=none;fillColor=none;align=center;verticalAlign=middle;whiteSpace=wrap;rounded=0;fontSize=20;fontFamily=Architects Daughter;" vertex="1" parent="1">
          <mxGeometry x="-950" y="-650" width="20" height="20" as="geometry" />
        </mxCell>
        <mxCell id="yaGknA6ZXVtnzNLj6_gG-24" value="&amp;nbsp;" style="text;whiteSpace=wrap;html=1;fontSize=20;fontFamily=Architects Daughter;" vertex="1" parent="1">
          <mxGeometry x="-1150" y="-620" width="40" height="50" as="geometry" />
        </mxCell>
        <mxCell id="yaGknA6ZXVtnzNLj6_gG-25" value="&amp;nbsp;" style="text;whiteSpace=wrap;html=1;fontSize=20;fontFamily=Architects Daughter;" vertex="1" parent="1">
          <mxGeometry x="-1040" y="-790" width="40" height="50" as="geometry" />
        </mxCell>
      </root>
    </mxGraphModel>
  </diagram>
</mxfile>
